<mxfile host="app.diagrams.net" modified="2023-11-22T06:12:05.119Z" agent="Mozilla/5.0 (Windows NT 10.0; Win64; x64) AppleWebKit/537.36 (KHTML, like Gecko) Chrome/119.0.0.0 Safari/537.36 Edg/119.0.0.0" etag="DqT1KCi69cWcXaq3Ok33" version="21.6.1" type="github">
  <diagram id="C5RBs43oDa-KdzZeNtuy" name="Page-1">
    <mxGraphModel dx="422" dy="398" grid="1" gridSize="10" guides="1" tooltips="1" connect="1" arrows="1" fold="1" page="1" pageScale="1" pageWidth="827" pageHeight="1169" math="0" shadow="0">
      <root>
        <mxCell id="WIyWlLk6GJQsqaUBKTNV-0" />
        <mxCell id="WIyWlLk6GJQsqaUBKTNV-1" parent="WIyWlLk6GJQsqaUBKTNV-0" />
        <mxCell id="WIyWlLk6GJQsqaUBKTNV-3" value="PPG biometic data&lt;br&gt;Collection" style="rounded=1;whiteSpace=wrap;html=1;fontSize=12;glass=0;strokeWidth=1;shadow=0;labelBackgroundColor=none;" parent="WIyWlLk6GJQsqaUBKTNV-1" vertex="1">
          <mxGeometry x="203" y="40" width="120" height="40" as="geometry" />
        </mxCell>
        <mxCell id="WIyWlLk6GJQsqaUBKTNV-7" value="AI machine leaning&lt;br&gt;model design" style="rounded=1;whiteSpace=wrap;html=1;fontSize=12;glass=0;strokeWidth=1;shadow=0;labelBackgroundColor=none;" parent="WIyWlLk6GJQsqaUBKTNV-1" vertex="1">
          <mxGeometry x="414" y="70" width="120" height="40" as="geometry" />
        </mxCell>
        <mxCell id="d5ANgDmR02GGeKv4E3o0-13" style="edgeStyle=orthogonalEdgeStyle;rounded=0;orthogonalLoop=1;jettySize=auto;html=1;labelBackgroundColor=none;fontColor=default;exitX=1;exitY=0.5;exitDx=0;exitDy=0;" edge="1" parent="WIyWlLk6GJQsqaUBKTNV-1" source="WIyWlLk6GJQsqaUBKTNV-10">
          <mxGeometry relative="1" as="geometry">
            <mxPoint x="534" y="90" as="targetPoint" />
            <mxPoint x="530" y="320" as="sourcePoint" />
            <Array as="points">
              <mxPoint x="600" y="320" />
              <mxPoint x="600" y="90" />
            </Array>
          </mxGeometry>
        </mxCell>
        <mxCell id="d5ANgDmR02GGeKv4E3o0-41" style="edgeStyle=orthogonalEdgeStyle;rounded=0;orthogonalLoop=1;jettySize=auto;html=1;entryX=1;entryY=0.5;entryDx=0;entryDy=0;" edge="1" parent="WIyWlLk6GJQsqaUBKTNV-1" target="d5ANgDmR02GGeKv4E3o0-24">
          <mxGeometry relative="1" as="geometry">
            <mxPoint x="330" y="380" as="targetPoint" />
            <mxPoint x="474" y="360" as="sourcePoint" />
            <Array as="points">
              <mxPoint x="474" y="380" />
            </Array>
          </mxGeometry>
        </mxCell>
        <mxCell id="WIyWlLk6GJQsqaUBKTNV-10" value="Optimal model" style="rhombus;whiteSpace=wrap;html=1;shadow=0;fontFamily=Helvetica;fontSize=12;align=center;strokeWidth=1;spacing=6;spacingTop=-4;labelBackgroundColor=none;" parent="WIyWlLk6GJQsqaUBKTNV-1" vertex="1">
          <mxGeometry x="424" y="280" width="100" height="80" as="geometry" />
        </mxCell>
        <mxCell id="d5ANgDmR02GGeKv4E3o0-10" value="" style="edgeStyle=orthogonalEdgeStyle;rounded=0;orthogonalLoop=1;jettySize=auto;html=1;labelBackgroundColor=none;fontColor=default;" edge="1" parent="WIyWlLk6GJQsqaUBKTNV-1" source="WIyWlLk6GJQsqaUBKTNV-11" target="WIyWlLk6GJQsqaUBKTNV-10">
          <mxGeometry relative="1" as="geometry" />
        </mxCell>
        <mxCell id="WIyWlLk6GJQsqaUBKTNV-11" value="Create Training and Test dataset" style="rounded=1;whiteSpace=wrap;html=1;fontSize=12;glass=0;strokeWidth=1;shadow=0;labelBackgroundColor=none;" parent="WIyWlLk6GJQsqaUBKTNV-1" vertex="1">
          <mxGeometry x="414" y="210" width="120" height="40" as="geometry" />
        </mxCell>
        <mxCell id="d5ANgDmR02GGeKv4E3o0-9" style="edgeStyle=orthogonalEdgeStyle;rounded=0;orthogonalLoop=1;jettySize=auto;html=1;entryX=0.5;entryY=0;entryDx=0;entryDy=0;labelBackgroundColor=none;fontColor=default;" edge="1" parent="WIyWlLk6GJQsqaUBKTNV-1" source="WIyWlLk6GJQsqaUBKTNV-12" target="WIyWlLk6GJQsqaUBKTNV-11">
          <mxGeometry relative="1" as="geometry" />
        </mxCell>
        <mxCell id="WIyWlLk6GJQsqaUBKTNV-12" value="Data preprocessing" style="rounded=1;whiteSpace=wrap;html=1;fontSize=12;glass=0;strokeWidth=1;shadow=0;labelBackgroundColor=none;" parent="WIyWlLk6GJQsqaUBKTNV-1" vertex="1">
          <mxGeometry x="414" y="140" width="120" height="40" as="geometry" />
        </mxCell>
        <mxCell id="d5ANgDmR02GGeKv4E3o0-0" value="&amp;nbsp;Blood glucose&amp;nbsp;data&lt;br&gt;Collection" style="rounded=1;whiteSpace=wrap;html=1;fontSize=12;glass=0;strokeWidth=1;shadow=0;labelBackgroundColor=none;" vertex="1" parent="WIyWlLk6GJQsqaUBKTNV-1">
          <mxGeometry x="203" y="100" width="120" height="40" as="geometry" />
        </mxCell>
        <mxCell id="d5ANgDmR02GGeKv4E3o0-5" style="edgeStyle=orthogonalEdgeStyle;rounded=0;orthogonalLoop=1;jettySize=auto;html=1;labelBackgroundColor=none;fontColor=default;" edge="1" parent="WIyWlLk6GJQsqaUBKTNV-1" source="d5ANgDmR02GGeKv4E3o0-3">
          <mxGeometry relative="1" as="geometry">
            <mxPoint x="414" y="90" as="targetPoint" />
            <Array as="points">
              <mxPoint x="404" y="90" />
              <mxPoint x="404" y="90" />
            </Array>
          </mxGeometry>
        </mxCell>
        <mxCell id="d5ANgDmR02GGeKv4E3o0-3" value="" style="strokeWidth=1;html=1;shape=mxgraph.flowchart.annotation_1;align=left;pointerEvents=1;rotation=-180;labelBackgroundColor=none;" vertex="1" parent="WIyWlLk6GJQsqaUBKTNV-1">
          <mxGeometry x="324" y="50" width="50" height="80" as="geometry" />
        </mxCell>
        <mxCell id="d5ANgDmR02GGeKv4E3o0-8" style="edgeStyle=orthogonalEdgeStyle;rounded=0;orthogonalLoop=1;jettySize=auto;html=1;exitX=0.5;exitY=1;exitDx=0;exitDy=0;entryX=0.5;entryY=0;entryDx=0;entryDy=0;labelBackgroundColor=none;fontColor=default;" edge="1" parent="WIyWlLk6GJQsqaUBKTNV-1" source="WIyWlLk6GJQsqaUBKTNV-7" target="WIyWlLk6GJQsqaUBKTNV-12">
          <mxGeometry relative="1" as="geometry" />
        </mxCell>
        <mxCell id="d5ANgDmR02GGeKv4E3o0-20" value="Trial and &lt;br&gt;error repeat" style="text;html=1;strokeColor=none;fillColor=none;align=center;verticalAlign=middle;whiteSpace=wrap;rounded=0;" vertex="1" parent="WIyWlLk6GJQsqaUBKTNV-1">
          <mxGeometry x="510" y="271" width="87" height="30" as="geometry" />
        </mxCell>
        <mxCell id="d5ANgDmR02GGeKv4E3o0-21" value="No" style="text;strokeColor=none;fillColor=none;align=left;verticalAlign=middle;spacingLeft=4;spacingRight=4;overflow=hidden;points=[[0,0.5],[1,0.5]];portConstraint=eastwest;rotatable=0;whiteSpace=wrap;html=1;" vertex="1" parent="WIyWlLk6GJQsqaUBKTNV-1">
          <mxGeometry x="525" y="316" width="26" height="30" as="geometry" />
        </mxCell>
        <mxCell id="d5ANgDmR02GGeKv4E3o0-31" style="edgeStyle=orthogonalEdgeStyle;rounded=0;orthogonalLoop=1;jettySize=auto;html=1;entryX=0.5;entryY=0;entryDx=0;entryDy=0;" edge="1" parent="WIyWlLk6GJQsqaUBKTNV-1" source="d5ANgDmR02GGeKv4E3o0-22" target="d5ANgDmR02GGeKv4E3o0-23">
          <mxGeometry relative="1" as="geometry" />
        </mxCell>
        <mxCell id="d5ANgDmR02GGeKv4E3o0-22" value="PPG data collection" style="rounded=1;whiteSpace=wrap;html=1;fontSize=12;glass=0;strokeWidth=1;shadow=0;labelBackgroundColor=none;" vertex="1" parent="WIyWlLk6GJQsqaUBKTNV-1">
          <mxGeometry x="203" y="200" width="120" height="40" as="geometry" />
        </mxCell>
        <mxCell id="d5ANgDmR02GGeKv4E3o0-32" style="edgeStyle=orthogonalEdgeStyle;rounded=0;orthogonalLoop=1;jettySize=auto;html=1;entryX=0.5;entryY=0;entryDx=0;entryDy=0;" edge="1" parent="WIyWlLk6GJQsqaUBKTNV-1" source="d5ANgDmR02GGeKv4E3o0-23" target="d5ANgDmR02GGeKv4E3o0-24">
          <mxGeometry relative="1" as="geometry" />
        </mxCell>
        <mxCell id="d5ANgDmR02GGeKv4E3o0-23" value="Data fitting" style="rounded=1;whiteSpace=wrap;html=1;fontSize=12;glass=0;strokeWidth=1;shadow=0;labelBackgroundColor=none;" vertex="1" parent="WIyWlLk6GJQsqaUBKTNV-1">
          <mxGeometry x="203" y="280" width="120" height="40" as="geometry" />
        </mxCell>
        <mxCell id="d5ANgDmR02GGeKv4E3o0-34" style="edgeStyle=orthogonalEdgeStyle;rounded=0;orthogonalLoop=1;jettySize=auto;html=1;" edge="1" parent="WIyWlLk6GJQsqaUBKTNV-1" source="d5ANgDmR02GGeKv4E3o0-24">
          <mxGeometry relative="1" as="geometry">
            <mxPoint x="262.9999999999999" y="440" as="targetPoint" />
          </mxGeometry>
        </mxCell>
        <mxCell id="d5ANgDmR02GGeKv4E3o0-24" value="AI machine learning&lt;br&gt;model calculation" style="rounded=1;whiteSpace=wrap;html=1;fontSize=12;glass=0;strokeWidth=1;shadow=0;labelBackgroundColor=none;" vertex="1" parent="WIyWlLk6GJQsqaUBKTNV-1">
          <mxGeometry x="203" y="360" width="120" height="40" as="geometry" />
        </mxCell>
        <mxCell id="d5ANgDmR02GGeKv4E3o0-25" value="Machine learning blood glucose prediction value" style="rounded=1;whiteSpace=wrap;html=1;fontSize=12;glass=0;strokeWidth=1;shadow=0;labelBackgroundColor=none;" vertex="1" parent="WIyWlLk6GJQsqaUBKTNV-1">
          <mxGeometry x="203" y="440" width="120" height="50" as="geometry" />
        </mxCell>
        <mxCell id="d5ANgDmR02GGeKv4E3o0-27" value="Blood glucose meter value" style="rounded=1;whiteSpace=wrap;html=1;fontSize=12;glass=0;strokeWidth=1;shadow=0;labelBackgroundColor=none;" vertex="1" parent="WIyWlLk6GJQsqaUBKTNV-1">
          <mxGeometry x="204" y="519" width="120" height="40" as="geometry" />
        </mxCell>
        <mxCell id="d5ANgDmR02GGeKv4E3o0-38" style="edgeStyle=orthogonalEdgeStyle;rounded=0;orthogonalLoop=1;jettySize=auto;html=1;exitX=0;exitY=0.5;exitDx=0;exitDy=0;exitPerimeter=0;" edge="1" parent="WIyWlLk6GJQsqaUBKTNV-1" source="d5ANgDmR02GGeKv4E3o0-30">
          <mxGeometry relative="1" as="geometry">
            <mxPoint x="400" y="499.9310344827586" as="targetPoint" />
          </mxGeometry>
        </mxCell>
        <mxCell id="d5ANgDmR02GGeKv4E3o0-30" value="" style="strokeWidth=1;html=1;shape=mxgraph.flowchart.annotation_1;align=left;pointerEvents=1;rotation=-180;labelBackgroundColor=none;" vertex="1" parent="WIyWlLk6GJQsqaUBKTNV-1">
          <mxGeometry x="324" y="460" width="50" height="80" as="geometry" />
        </mxCell>
        <mxCell id="d5ANgDmR02GGeKv4E3o0-39" value="AI prediction model validation" style="rounded=1;whiteSpace=wrap;html=1;fontSize=12;glass=0;strokeWidth=1;shadow=0;labelBackgroundColor=none;" vertex="1" parent="WIyWlLk6GJQsqaUBKTNV-1">
          <mxGeometry x="404" y="480" width="120" height="40" as="geometry" />
        </mxCell>
        <mxCell id="d5ANgDmR02GGeKv4E3o0-42" value="Yes" style="text;strokeColor=none;fillColor=none;align=left;verticalAlign=middle;spacingLeft=4;spacingRight=4;overflow=hidden;points=[[0,0.5],[1,0.5]];portConstraint=eastwest;rotatable=0;whiteSpace=wrap;html=1;" vertex="1" parent="WIyWlLk6GJQsqaUBKTNV-1">
          <mxGeometry x="430" y="343" width="30" height="30" as="geometry" />
        </mxCell>
      </root>
    </mxGraphModel>
  </diagram>
</mxfile>
